<svg width="32" height="32" viewBox="0 0 32 32" fill="none" xmlns="http://www.w3.org/2000/svg">
<path d="M2.71668 7.47998C2.6829 7.65125 2.66593 7.82541 2.66602 7.99998V24C2.66602 24.7072 2.94697 25.3855 3.44706 25.8856C3.94716 26.3857 4.62544 26.6666 5.33268 26.6666H26.666C27.3733 26.6666 28.0515 26.3857 28.5516 25.8856C29.0517 25.3855 29.3327 24.7072 29.3327 24V7.99998C29.3327 7.83998 29.3193 7.68265 29.2927 7.53065L28.138 8.39731L17.618 16.44C17.153 16.7954 16.584 16.988 15.9987 16.988C15.4134 16.988 14.8444 16.7954 14.3793 16.44L3.84468 8.38398L2.71668 7.47998Z" fill="#E5E9F0"/>
<path d="M27.5686 5.48926C27.279 5.38547 26.9735 5.33269 26.6659 5.33326H5.33256C5.03256 5.33326 4.7459 5.38259 4.47656 5.47326L5.48723 6.28259L15.9992 14.3226L26.5326 6.26659L27.5686 5.48926Z" fill="#E5E9F0"/>
</svg>
