<svg width="32" height="32" viewBox="0 0 32 32" fill="none" xmlns="http://www.w3.org/2000/svg">
<path fill-rule="evenodd" clip-rule="evenodd" d="M6.66602 5.33341C6.66602 4.62617 6.94697 3.94789 7.44706 3.4478C7.94716 2.9477 8.62544 2.66675 9.33268 2.66675H22.666C23.3733 2.66675 24.0515 2.9477 24.5516 3.4478C25.0517 3.94789 25.3327 4.62617 25.3327 5.33341V26.6667C25.3327 27.374 25.0517 28.0523 24.5516 28.5524C24.0515 29.0525 23.3733 29.3334 22.666 29.3334H9.33268C8.62544 29.3334 7.94716 29.0525 7.44706 28.5524C6.94697 28.0523 6.66602 27.374 6.66602 26.6667V5.33341ZM22.666 21.3334V6.66675H9.33268V21.3334H22.666ZM15.9993 22.6667C15.6457 22.6667 15.3066 22.8072 15.0565 23.0573C14.8065 23.3073 14.666 23.6465 14.666 24.0001C14.666 24.3537 14.8065 24.6928 15.0565 24.9429C15.3066 25.1929 15.6457 25.3334 15.9993 25.3334H16.0127C16.3663 25.3334 16.7054 25.1929 16.9555 24.9429C17.2055 24.6928 17.346 24.3537 17.346 24.0001C17.346 23.6465 17.2055 23.3073 16.9555 23.0573C16.7054 22.8072 16.3663 22.6667 16.0127 22.6667H15.9993Z" fill="#E5E9F0"/>
</svg>
