<svg width="24" height="24" viewBox="0 0 24 24" fill="none" xmlns="http://www.w3.org/2000/svg">
<path fill-rule="evenodd" clip-rule="evenodd" d="M22 5.89188C21.2512 6.22008 20.4573 6.43413 19.645 6.52688C20.4962 6.02485 21.1359 5.23054 21.445 4.29188C20.6377 4.76245 19.7571 5.09407 18.84 5.27288C18.4536 4.86953 17.9894 4.54875 17.4755 4.32994C16.9615 4.11113 16.4086 3.99885 15.85 3.99988C15.3156 3.99566 14.7856 4.09678 14.2903 4.29745C13.795 4.49813 13.3441 4.79442 12.9634 5.16941C12.5826 5.54441 12.2795 5.99074 12.0713 6.48293C11.8631 6.97511 11.7539 7.50349 11.75 8.03788C11.75 8.34788 11.785 8.65588 11.855 8.95688C10.2296 8.87937 8.63813 8.46379 7.18233 7.73667C5.72653 7.00954 4.43834 5.98685 3.4 4.73388C2.87622 5.62296 2.71572 6.67986 2.95194 7.68434C3.18816 8.68883 3.80288 9.56343 4.668 10.1259C4.01779 10.1067 3.38112 9.93543 2.809 9.62588V9.67588C2.8148 10.6146 3.14597 11.5223 3.74609 12.2443C4.3462 12.9662 5.1781 13.4577 6.1 13.6349C5.49435 13.7967 4.86012 13.8206 4.244 13.7049C4.51331 14.5119 5.02652 15.2153 5.71275 15.7181C6.39898 16.2209 7.22439 16.4983 8.075 16.5119C6.34557 17.8402 4.16557 18.4402 2 18.1839C3.88216 19.374 6.06415 20.0039 8.291 19.9999C9.81562 20.0226 11.3295 19.7419 12.7447 19.1741C14.1598 18.6064 15.448 17.7629 16.5342 16.6928C17.6204 15.6227 18.483 14.3473 19.0718 12.9408C19.6606 11.5342 19.9639 10.0247 19.964 8.49988C19.964 8.32288 19.964 8.15088 19.952 7.97688C20.7548 7.41108 21.4487 6.70471 22 5.89188Z" fill="#E5E9F0"/>
</svg>
